<?xml version="1.0" standalone="yes"?>
<svg xmlns="http://www.w3.org/2000/svg" width="512" height="512">
<path style="fill:#ffffff; stroke:none;" d="M0 0L0 227L1 227C5.68343 200.743 41.097 199.656 62 197C64.2476 187.285 75.9061 171.412 74.3017 162C71.8145 147.409 53.4408 136.881 49.6096 122C43.6824 98.9783 65.8132 83.1859 80 69C88.1555 60.845 96.8971 51.6483 109 50.1844C124.086 48.3598 135.621 59.286 147 67.4213C150.687 70.0575 155.43 74.9493 160 75.7554C163.419 76.3584 167.086 73.6941 170 72.2477C176.961 68.7929 185.208 67.2289 191.853 63.2909C197.223 60.1079 196.743 49.5313 197.803 44C201.138 26.6046 203.594 4.81815 225 1L204 0L158 0L0 0z"/>
<path style="fill:#010101; stroke:none;" d="M62 197C46.4728 198.227 22.1984 199.786 10.0401 210.329C5.19518 214.53 1.65747 220.693 0.467593 227C-0.862305 234.049 0 241.848 0 249C0 265.786 -4.39891 288.608 8.18519 301.91C22.6417 317.191 45.0565 307.807 60.7253 318.013C65.9725 321.431 67.4346 332.509 69.8619 338C71.5518 341.823 75.2401 346.488 75.5239 350.715C75.8483 355.545 68.8224 362.322 66.1157 366C58.7847 375.963 50.1868 385.979 50.0185 399C49.8288 413.68 59.342 422.342 69 432C79.5848 442.585 92.0387 460.874 108 462.816C124.066 464.77 134.567 456.768 147 447.86C151.208 444.844 157.36 438.387 162.576 437.572C165.652 437.091 169.351 439.968 172 441.219C178.643 444.356 186.569 445.809 192.853 449.557C197.339 452.233 197.156 459.386 197.92 464C199.728 474.915 200.057 488.441 206.133 498C219.878 519.624 259.001 512.533 281 511.985C304.426 511.402 309.788 489.908 312.92 471C313.884 465.18 313.561 452.889 319.147 449.557C324.933 446.106 344.69 436.151 351 437.479C356.254 438.585 361.704 444.229 366 447.291C380.646 457.728 396.83 469.051 415 458.633C422.656 454.244 428.81 446.19 435 440C449.884 425.116 468.999 410.456 460.613 387C457.084 377.128 449.019 368.457 443 360C440.216 356.088 436.187 352.121 437.904 347C440.284 339.906 445.516 321.381 451.418 316.938C455.041 314.212 461.658 314.315 466 313.586C478.921 311.42 494.174 311.019 503.815 300.907C516.577 287.52 512 263.938 512 247C512 239.936 513.037 231.919 511.471 225C510.083 218.862 506.638 213.361 501.985 209.185C490.337 198.729 465.168 196.651 450 196C448.587 187.791 444.819 179.495 441.255 172C439.814 168.968 436.572 164.056 437.529 160.576C442.544 142.327 463.672 133.35 462.957 112C462.485 97.9234 452.31 88.31 443 79C428.734 64.7336 413.76 44.6896 391 50.2392C375.862 53.9302 365.622 71.7569 351 74.5363C346.956 75.3049 342.464 71.9298 339 70.2585C331.618 66.6967 323.13 63.2007 315 62C314.342 46.6688 312.203 21.8796 301.696 10.0401C297.422 5.22345 291.348 1.66513 285 0.46759C277.951 -0.862305 270.152 0 263 0C246.628 0 224.384 -4.24255 211.04 7.3287C194.561 21.6186 204.699 44.8991 194.012 60.7253C189.725 67.0732 171.205 71.7214 164.039 74.6829C158.862 76.8226 155.018 72.4519 151 69.5787C141.973 63.1232 132.812 54.4405 122 51.2099C95.5762 43.3142 70.0899 74.7639 55.8194 93C41.3201 111.529 52.0457 129.58 63.341 146C66.5431 150.655 72.6005 156.399 73.8171 162C74.7024 166.076 71.4249 170.492 69.7816 174C66.4481 181.116 63.1507 189.208 62 197z"/>
<path style="fill:#ffffff; stroke:none;" d="M285 0L285 1C310.771 5.59677 313.346 41.0698 315 62C322.812 63.8073 330.78 66.7747 338 70.2585C341.716 72.0517 346.669 75.735 351 75.108C365.745 72.9738 376.799 53.9398 392 50.2392C414.677 44.7187 431.025 68.0192 445 82C453.355 90.3579 462.283 99.45 462.895 112C463.582 126.072 452.905 137.315 445.291 148C442.682 151.661 437.774 156.415 437.117 161C435.761 170.467 447.395 186.455 450 196C471.731 197.717 504.125 200.067 511 225L512 225L512 0L285 0M232.317 30.0278C228.575 32.509 228.747 40.9762 228.08 45C226.077 57.0958 226.486 79.4738 214.985 86.5178C203.481 93.5638 188.257 96.0756 176 102.248C170.419 105.058 164.605 109.609 158 108.772C146.569 107.324 134.104 94.383 125 87.8596C121.739 85.523 116.38 79.9928 112 80.831C105.003 82.17 96.8801 94.1199 92 99C88.2436 102.756 82.1994 107.022 80.0826 112C78.0609 116.754 83.5976 122.434 86.1412 126C92.9333 135.522 104.147 146.611 107.361 158C109.187 164.47 105.02 170.453 102.247 176C95.8746 188.745 93.3539 203.676 86.7222 215.999C80.0582 228.383 58.2556 227.71 46 229.753C41.0587 230.577 31.179 230.223 29.4336 236.059C27.922 241.113 29 247.761 29 253C29 259.734 26.3075 273.939 30.0278 279.697C32.5121 283.541 39.9572 283.411 44 284.08C54.9313 285.891 72.9802 285.577 81.9846 292.43C89.4506 298.112 90.7195 308.655 93.6921 317C97.3213 327.188 103.318 336.109 107.471 346C113.365 360.039 96.4845 375.485 89 386C85.7711 390.536 78.2921 397.284 82.3372 403C88.3281 411.466 97.662 418.678 105 426C107.493 428.487 110.997 433.376 115 432.954C119.137 432.519 123.734 427.756 127 425.421C136.158 418.874 148.618 406.139 160 404.508C166.721 403.546 173.288 408.542 179 411.398C190.471 417.134 203.88 419.294 214.999 425.278C227.53 432.021 226.863 454.581 228.92 467C229.591 471.05 229.457 478.382 232.589 481.397C235.25 483.958 240.639 483 244 483C253.308 483 269.302 486.109 277.853 482.397C282.148 480.532 282.247 472.979 282.919 469C284.775 458.008 284.487 441.719 290.09 432.004C294.502 424.353 303.365 423.19 311 420.645C323.447 416.496 334.62 408.361 347 404.613C360.095 400.649 376.199 417.572 386 424.579C390.326 427.672 396.511 434.416 402 430.638C410.49 424.794 417.724 415.292 425 408C427.514 405.48 432.325 402.026 431.979 398C431.646 394.122 427.457 390.076 425.341 387C417.783 376.012 399.43 359.475 405.349 345C410.077 333.436 416.662 322.949 420.645 311C423.227 303.255 424.225 294.552 432.001 290.09C442.115 284.286 458.597 284.499 470 282.586C474.252 281.873 481.291 282.017 482.682 276.941C485.404 267.013 483.001 253.297 483 243C483 239.071 483.919 233.675 479.852 231.434C465.519 223.533 443.327 230.841 430.043 220.442C423.348 215.201 422.291 205.588 419.656 198C415.734 186.705 407.845 176.303 404.637 165C400.783 151.417 418.178 135.132 425.421 125C427.557 122.012 431.853 117.834 432.119 114C432.395 110.018 427.492 106.497 425 104C417.723 96.7082 410.49 87.206 402 81.3619C396.42 77.521 390.339 84.4433 386 87.5756C376.87 94.1671 361.167 110.771 349 108.033C336.055 105.12 323.8 95.7822 311 91.5154C304.446 89.3309 296.129 88.395 291.394 82.8951C283.869 74.1563 284.259 56.0033 282.414 45C281.688 40.6749 281.873 32.6451 277.721 30.0278C271.854 26.329 257.816 29 251 29C246.052 29 236.584 27.1989 232.317 30.0278z"/>
<path style="fill:#010101; stroke:none;" d="M245 145.425C226.816 147.9 209.39 153.2 194 163.519C182.012 171.557 171.697 182.03 163.671 194C110.683 273.023 178.994 378.246 272 365.718C287.555 363.622 302.822 358.227 316 349.655C394.786 298.408 377.232 171.605 284 148.375C271.582 145.281 257.747 143.69 245 145.425z"/>
<path style="fill:#ffffff; stroke:none;" d="M246 175.428C234.235 177.114 223.092 180.895 213 187.229C203.809 192.998 196.205 200.175 189.91 209C148.078 267.642 200.605 346.338 270 335.866C280.592 334.267 291.043 329.939 300 324.135C358.681 286.113 343.202 193.563 275 177.13C265.7 174.89 255.51 174.066 246 175.428M511 286C507.295 306.771 486.194 310.072 469 312.92C463.279 313.867 452.179 313.479 449.055 319.144C445.616 325.379 435.673 344.249 436.916 351C440.21 368.894 463.288 378.554 462.741 399C462.255 417.159 444.706 429.294 433 441C426.433 447.567 419.806 456.501 411 460.069C393.273 467.253 379.836 456.47 366 446.579C361.738 443.531 356.271 437.886 351 436.916C347.52 436.275 343.975 438.783 341 440.244C333.92 443.721 324.828 445.222 318.314 449.557C313.675 452.644 313.918 463.94 313.08 469C310.238 486.16 306.625 507.321 286 511L286 512L512 512L512 353L512 307L511 286M0 287L0 512L226 512L226 511C205.511 507.345 201.91 487.085 199.08 470C198.145 464.353 198.498 452.08 192.853 449.105C186.822 445.926 168.373 436.029 162 437.325C157.412 438.258 152.733 443.049 149 445.709C135.151 455.578 120.078 468.735 102 460.826C93.1554 456.956 86.686 448.686 80 442C68.6882 430.688 51.9319 419.126 50.1744 402C48.6916 387.551 59.7553 375.832 67.5756 365C70.2261 361.329 75.0141 356.593 75.7662 352C76.8712 345.253 66.9409 327.478 63.7531 321.059C59.5817 312.658 36.4688 313.285 28 311.55C12.963 308.471 7.02216 299.428 0 287z"/>
</svg>
